<svg xmlns="http://www.w3.org/2000/svg" width="2000" height="2000" viewBox="0 0 2000 2000" version="1.1"><path d="M 1706.124 172.578 C 1703.167 173.373, 1697.542 175.668, 1693.624 177.678 L 1686.500 181.333 1535.371 332.281 L 1384.242 483.229 1375.371 476.740 C 1288.833 413.432, 1179.969 371.594, 1070.500 359.574 C 1025.329 354.614, 973.715 354.613, 928.500 359.572 C 650.319 390.080, 422.986 598.545, 368.056 873.500 C 359.066 918.502, 356.494 946.827, 356.523 1000.500 C 356.548 1045.330, 357.354 1057.828, 362.530 1093.714 C 388.450 1273.426, 492.518 1436.545, 645.500 1537.250 C 731.075 1593.582, 827.260 1628.309, 928.500 1639.426 C 973.677 1644.387, 1025.323 1644.387, 1070.500 1639.426 C 1259.979 1618.620, 1431.585 1513.723, 1536.547 1354.546 C 1596.352 1263.849, 1630.802 1165.065, 1641.185 1054.500 C 1642.958 1035.626, 1642.958 963.374, 1641.185 944.500 C 1633.259 860.093, 1612.101 785.162, 1575.537 712 C 1560.449 681.809, 1541.133 649.670, 1522.740 624.153 L 1516.723 615.805 1667.695 464.653 L 1818.667 313.500 1822.305 306.408 C 1827.121 297.020, 1829 289.378, 1829 279.184 C 1829 268.972, 1826.995 260.769, 1822.234 251.500 L 1818.639 244.500 1787.069 212.931 L 1755.500 181.361 1748.500 177.766 C 1744.650 175.788, 1738.735 173.457, 1735.356 172.585 C 1727.770 170.628, 1713.385 170.625, 1706.124 172.578 M 1336.246 617.254 L 951.993 1001.508 975.250 1024.751 L 998.508 1047.993 1383 663.500 L 1767.491 279.008 1744.504 256.004 C 1731.861 243.352, 1721.287 233, 1721.008 233 C 1720.728 233, 1547.585 405.914, 1336.246 617.254 M 973 417.060 C 813.082 424.362, 664.759 496.123, 559.336 617.199 C 447.095 746.104, 397.343 918.063, 423.120 1088 C 445.853 1237.866, 526.909 1373.213, 649.240 1465.573 C 773.932 1559.717, 932.217 1599.510, 1088 1575.880 C 1212.461 1557, 1328.366 1497.340, 1416.660 1406.706 C 1544.982 1274.984, 1603.383 1093.175, 1575.890 911 C 1563.193 826.862, 1530.691 743.912, 1482.735 673.250 C 1477.789 665.962, 1473.465 660, 1473.126 660 C 1472.788 660, 1373.763 758.663, 1253.071 879.250 L 1033.631 1098.500 1033.468 1107.500 C 1033.202 1122.168, 1029.058 1133.245, 1019.439 1145 C 1016.514 1148.575, 955.031 1210.457, 882.810 1282.516 C 785.996 1379.113, 750.037 1414.384, 745.932 1416.778 C 736.343 1422.367, 729.575 1424.304, 718 1424.771 C 705.569 1425.272, 698.097 1423.673, 687.500 1418.242 L 680.500 1414.655 632.922 1367.078 L 585.345 1319.500 581.758 1312.500 C 576.327 1301.903, 574.728 1294.431, 575.229 1282 C 575.696 1270.425, 577.633 1263.657, 583.222 1254.068 C 585.616 1249.963, 620.887 1214.004, 717.484 1117.190 C 789.543 1044.969, 851.425 983.486, 855 980.561 C 866.725 970.967, 877.801 966.816, 892.500 966.506 L 901.500 966.317 1063.834 803.817 L 1226.169 641.317 1221.334 638.283 C 1197.035 623.035, 1161.494 606.688, 1132 597.192 C 1093.430 584.774, 1060.236 578.926, 1017 576.932 L 993.500 575.848 987.286 572.879 C 976.448 567.701, 970.629 558.311, 970.629 546 C 970.629 534.259, 975.990 525.091, 986.144 519.466 L 991.500 516.500 1006.500 516.152 C 1048.604 515.176, 1103.374 524.072, 1151.394 539.686 C 1189.639 552.122, 1228.748 570.562, 1260.838 591.288 L 1270.177 597.320 1305.613 561.884 L 1341.049 526.447 1322.775 514.336 C 1276.873 483.916, 1232.772 462.421, 1181.517 445.488 C 1130.725 428.707, 1080.565 419.670, 1023.500 417.019 C 1000.494 415.951, 997.247 415.953, 973 417.060 M 969.500 690.682 C 946.606 692.661, 913.676 699.866, 892.500 707.530 C 847.366 723.863, 811.455 746.631, 777.412 780.496 C 751.339 806.432, 733.913 830.267, 718.378 861.244 C 704.390 889.135, 692.534 925.475, 691.299 944.247 L 690.723 952.995 693.894 959.436 C 699.209 970.232, 709.084 976.389, 721.111 976.404 L 727.721 976.412 734.304 973.171 C 744.608 968.099, 748.463 962.283, 751.986 946.500 C 771.038 861.146, 834.439 790.981, 917.606 763.208 C 941.305 755.294, 963.329 751.569, 992.709 750.506 C 1002.174 750.164, 1011.303 749.487, 1012.995 749.002 C 1021.008 746.703, 1029.827 738.047, 1032.571 729.787 C 1034.887 722.814, 1034.123 713.117, 1030.737 706.500 C 1027.450 700.076, 1022.890 695.766, 1016 692.570 L 1010.500 690.020 992 690.178 C 981.825 690.265, 971.700 690.492, 969.500 690.682 M 571.385 793.617 C 566.113 795.487, 559.659 801.018, 556.547 806.334 C 549.844 817.782, 536.354 857.223, 529.471 885.500 C 519.955 924.591, 516.006 958.336, 516.015 1000.500 C 516.024 1042.559, 520.077 1076.946, 529.629 1116 C 533.860 1133.298, 541.362 1157.829, 544.006 1163.011 C 546.772 1168.434, 555.192 1175.571, 561.164 1177.554 C 572.410 1181.290, 585.808 1177.570, 593.798 1168.492 C 602.484 1158.625, 603.084 1149.534, 596.419 1128.771 C 566.844 1036.628, 570.384 935.059, 606.344 844 L 612.465 828.500 612.419 821.500 C 612.341 809.433, 606.736 800.522, 595.778 795.047 L 589.681 792 582.590 792.079 C 578.691 792.122, 573.648 792.815, 571.385 793.617 M 1266.324 988.638 C 1261.077 990.497, 1253.730 996.898, 1250.482 1002.440 C 1248.824 1005.270, 1247.678 1009.315, 1247.039 1014.591 C 1243.832 1041.106, 1242.523 1049.498, 1239.972 1059.894 C 1222.301 1131.916, 1174.213 1192.039, 1108 1224.896 C 1083.309 1237.149, 1058.916 1244.918, 1034 1248.466 C 1017.340 1250.838, 1013.532 1252.307, 1006.936 1258.910 C 1000.511 1265.342, 998 1271.268, 998 1280 C 998 1288.731, 1000.511 1294.659, 1006.926 1301.074 C 1016.273 1310.421, 1023.885 1311.729, 1047 1307.963 C 1173.798 1287.300, 1276.419 1188.641, 1301.392 1063.391 C 1306.963 1035.453, 1308.352 1015.331, 1305.324 1006.428 C 1303.045 999.726, 1294.274 990.955, 1287.572 988.676 C 1281.600 986.645, 1271.996 986.628, 1266.324 988.638 M 764.500 1157 L 636.503 1285 675.749 1324.246 L 714.995 1363.492 744.748 1333.998 C 761.111 1317.777, 818.937 1260.180, 873.249 1206.006 L 971.997 1107.507 932.753 1068.253 C 911.169 1046.664, 893.282 1029, 893.003 1029 C 892.725 1029, 834.898 1086.600, 764.500 1157 M 1363.266 1234.493 C 1354.943 1236.811, 1350.414 1240.547, 1341.477 1252.465 C 1299.228 1308.809, 1246.941 1351.982, 1184.500 1382.079 C 1157.353 1395.165, 1135.652 1403.042, 1104.965 1410.950 C 1084.470 1416.232, 1081.697 1417.370, 1076.386 1422.681 C 1064.866 1434.201, 1064.871 1453.804, 1076.396 1465.330 C 1081.885 1470.818, 1087.407 1473.245, 1095.630 1473.782 L 1102.761 1474.248 1119.200 1470.135 C 1151.924 1461.947, 1182.578 1450.656, 1214.500 1435.032 C 1282.985 1401.512, 1343.095 1351.719, 1388.976 1290.500 C 1399.057 1277.049, 1401 1272.603, 1401 1262.982 C 1401 1257.552, 1400.434 1255.187, 1397.942 1250.200 C 1394.483 1243.278, 1390.747 1239.707, 1383.500 1236.396 C 1376.828 1233.347, 1369.764 1232.683, 1363.266 1234.493" stroke="none" fill="#fffcfc" fill-rule="evenodd"/><path d="" stroke="none" fill="#fcfcfc" fill-rule="evenodd"/></svg>